<svg xmlns="http://www.w3.org/2000/svg" fill="none" viewBox="0 0 64 64" id="Audio-File--Streamline-Ultimate" height="64" width="64">
  <desc>
    Audio File Streamline Icon: https://streamlinehq.com
  </desc>
  <path fill="#e4f1f5" d="M55.48453333333333 12.869573333333332c0.4784 0.47824 0.7472 1.1269066666666667 0.7474666666666666 1.8033599999999999V58.78266666666667c0 0.6765333333333332 -0.2688 1.3253333333333333 -0.7472 1.8034666666666666 -0.4781333333333333 0.4784 -1.1269333333333331 0.7472 -1.8034666666666666 0.7472H10.31896c-0.6765066666666667 0 -1.3252799999999998 -0.2688 -1.8036533333333333 -0.7472 -0.4783466666666667 -0.4781333333333333 -0.7470666666666667 -1.1269333333333331 -0.7470666666666667 -1.8034666666666666V5.217386666666666c0 -0.67648 0.26871999999999996 -1.3252799999999998 0.7470666666666667 -1.8036266666666665C8.99368 2.9354133333333334 9.642453333333332 2.6666666666666665 10.31896 2.6666666666666665H44.22586666666667c0.6762666666666666 0.00013333333333333334 1.3250666666666666 0.26898666666666665 1.8032 0.74736l9.455466666666666 9.455546666666667Z" stroke-width="2.6667"></path>
  <path fill="#ffffff" d="m55.48453333333333 12.869573333333332 -9.455466666666666 -9.455546666666667c-0.4781333333333333 -0.4783733333333333 -1.1269333333333331 -0.7472266666666667 -1.8032 -0.74736H10.31896c-0.6765066666666667 0 -1.3252799999999998 0.26874666666666663 -1.8036533333333333 0.7470933333333334 -0.4783466666666667 0.4783466666666667 -0.7470666666666667 1.1271466666666665 -0.7470666666666667 1.8036266666666665V58.78266666666667c0.00013333333333333334 0.6762666666666666 0.26896 1.3250666666666666 0.74736 1.8032L55.78293333333333 13.318480000000001c-0.08213333333333334 -0.16034666666666667 -0.1824 -0.3109333333333333 -0.2984 -0.4489066666666666Z" stroke-width="2.6667"></path>
  <path stroke="#191919" stroke-linecap="round" stroke-linejoin="round" d="M55.48453333333333 12.869573333333332c0.4784 0.47824 0.7472 1.1269066666666667 0.7474666666666666 1.8033599999999999V58.78266666666667c0 0.6765333333333332 -0.2688 1.3253333333333333 -0.7472 1.8034666666666666 -0.4781333333333333 0.4784 -1.1269333333333331 0.7472 -1.8034666666666666 0.7472H10.31896c-0.6765066666666667 0 -1.3252799999999998 -0.2688 -1.8036533333333333 -0.7472 -0.4783466666666667 -0.4781333333333333 -0.7470666666666667 -1.1269333333333331 -0.7470666666666667 -1.8034666666666666V5.217386666666666c0 -0.67648 0.26871999999999996 -1.3252799999999998 0.7470666666666667 -1.8036266666666665C8.99368 2.9354133333333334 9.642453333333332 2.6666666666666665 10.31896 2.6666666666666665H44.22586666666667c0.6762666666666666 0.00013333333333333334 1.3250666666666666 0.26898666666666665 1.8032 0.74736l9.455466666666666 9.455546666666667Z" stroke-width="2.6667"></path>
  <path fill="#808080" stroke="#191919" stroke-linecap="round" stroke-linejoin="round" d="M39.6528 43.47813333333333c0.5026666666666666 0 1 -0.09893333333333333 1.4642666666666666 -0.2912 0.46426666666666666 -0.19226666666666664 0.8861333333333332 -0.47413333333333335 1.2413333333333334 -0.8293333333333333 0.3552 -0.35546666666666665 0.6370666666666667 -0.7770666666666666 0.8293333333333333 -1.2413333333333334 0.19226666666666664 -0.46426666666666666 0.2912 -0.9615999999999999 0.2912 -1.4642666666666666 0 -0.5024 -0.09893333333333333 -1 -0.2912 -1.464 -0.19226666666666664 -0.46426666666666666 -0.47413333333333335 -0.8861333333333332 -0.8293333333333333 -1.2413333333333334 -0.3552 -0.3552 -0.7770666666666666 -0.6370666666666667 -1.2413333333333334 -0.8293333333333333 -0.46426666666666666 -0.19226666666666664 -0.9615999999999999 -0.2912 -1.4642666666666666 -0.2912 -1.0146666666666666 0 -1.9877333333333331 0.40293333333333337 -2.705333333333333 1.1205333333333334s-1.1205333333333334 1.6906666666666665 -1.1205333333333334 2.705333333333333c0 1.0149333333333332 0.40293333333333337 1.988 1.1205333333333334 2.7055999999999996 0.7176 0.7176 1.6906666666666665 1.1205333333333334 2.705333333333333 1.1205333333333334Z" stroke-width="2.6667"></path>
  <path fill="#808080" stroke="#191919" stroke-linecap="round" stroke-linejoin="round" d="M21.798746666666666 46.0288c1.0147466666666665 0 1.98792 -0.40293333333333337 2.70544 -1.1205333333333334 0.7175466666666666 -0.7176 1.1206399999999999 -1.6906666666666665 1.1206399999999999 -2.7055999999999996 0 -1.0146666666666666 -0.4030933333333333 -1.9877333333333331 -1.1206399999999999 -2.705333333333333 -0.7175199999999999 -0.7176 -1.6906933333333332 -1.1205333333333334 -2.70544 -1.1205333333333334 -1.0147466666666665 0 -1.98792 0.40293333333333337 -2.7054666666666667 1.1205333333333334 -0.7175199999999999 0.7176 -1.1206133333333332 1.6906666666666665 -1.1206133333333332 2.705333333333333 0 1.0149333333333332 0.4030933333333333 1.988 1.1206133333333332 2.7055999999999996 0.7175466666666666 0.7176 1.69072 1.1205333333333334 2.7054666666666667 1.1205333333333334Z" stroke-width="2.6667"></path>
  <path stroke="#191919" stroke-linecap="round" stroke-linejoin="round" d="M25.62501333333333 42.202666666666666v-14.656266666666667c0.00024 -0.5541333333333334 0.18082666666666664 -1.0929066666666665 0.5144533333333333 -1.5351466666666664 0.33365333333333336 -0.44223999999999997 0.8021333333333334 -0.7638666666666666 1.3349333333333333 -0.9161866666666666l12.7536 -3.6449866666666666c0.3797333333333333 -0.10863999999999999 0.7794666666666666 -0.12757333333333332 1.1677333333333333 -0.05533333333333333 0.38826666666666665 0.07221333333333332 0.7546666666666666 0.23365333333333332 1.0698666666666665 0.4715466666666666 0.3154666666666667 0.23789333333333332 0.5711999999999999 0.54576 0.7472 0.8993599999999999s0.26746666666666663 0.7432266666666667 0.2672 1.1382133333333333v15.748133333333332" stroke-width="2.6667"></path>
</svg>
