<svg xmlns="http://www.w3.org/2000/svg" fill="none" viewBox="0 0 64 64" id="Image-File-Jpg--Streamline-Ultimate" height="64" width="64">
  <desc>
    Image File Jpg Streamline Icon: https://streamlinehq.com
  </desc>
  <path fill="#66e1ff" d="M56.232 17.894506666666665V58.78266666666667c0 0.6765333333333332 -0.2685333333333333 1.3253333333333333 -0.7469333333333333 1.8037333333333332S54.357866666666666 61.33333333333333 53.681333333333335 61.33333333333333H10.31896c-0.6765066666666667 0 -1.3252799999999998 -0.2685333333333333 -1.8036266666666665 -0.7469333333333333 -0.4784 -0.4784 -0.7470933333333334 -1.1272 -0.7470933333333334 -1.8037333333333332V5.217386666666666c0 -0.67648 0.26869333333333334 -1.3252799999999998 0.7470933333333334 -1.8036266666666665C8.99368 2.9354133333333334 9.642453333333332 2.6666666666666665 10.31896 2.6666666666666665H41.004266666666666c0.8301333333333334 -0.0006773333333333333 1.6583999999999999 0.07618666666666667 2.474133333333333 0.22957333333333332V12.8696c0 0.67648 0.2688 1.3252799999999998 0.7472 1.8036266666666665 0.4784 0.4783466666666667 1.1269333333333331 0.7470933333333334 1.8034666666666666 0.7470933333333334h9.9736c0.15333333333333332 0.8157866666666667 0.23013333333333333 1.6441333333333334 0.2293333333333333 2.4741866666666663Z" stroke-width="2.6667"></path>
  <path fill="#c2f3ff" d="M44.371199999999995 14.808133333333332 7.76824 51.43653333333333V5.217386666666666c0 -0.67648 0.26869333333333334 -1.3252799999999998 0.7470933333333334 -1.8036266666666665C8.99368 2.9354133333333334 9.642453333333332 2.6666666666666665 10.31896 2.6666666666666665H41.004266666666666c0.8301333333333334 -0.0006773333333333333 1.6583999999999999 0.07618666666666667 2.474133333333333 0.22957333333333332V12.8696c0.0048 0.3676 0.08666666666666667 0.7300800000000001 0.24080000000000001 1.064 0.1536 0.33392 0.3757333333333333 0.6318666666666666 0.6519999999999999 0.8745333333333334Z" stroke-width="2.6667"></path>
  <path fill="#ffffff" d="M56.00213333333333 15.42024h-9.973333333333333c-0.6768000000000001 0 -1.3253333333333333 -0.26874666666666663 -1.8037333333333332 -0.7470933333333334 -0.4784 -0.4783466666666667 -0.7472 -1.1271466666666665 -0.7472 -1.8036266666666665V2.89616c3.1399999999999997 0.50376 6.041066666666667 1.9855199999999997 8.289866666666665 4.2342933333333335 2.2488 2.2487199999999996 3.7306666666666666 5.149733333333333 4.2344 8.289786666666666Z" stroke-width="2.6667"></path>
  <path stroke="#191919" stroke-linecap="round" stroke-linejoin="round" d="M53.681333333333335 61.33333333333333c0.6765333333333332 0 1.3253333333333333 -0.2688 1.8037333333333332 -0.7469333333333333 0.4784 -0.4784 0.7469333333333333 -1.1272 0.7469333333333333 -1.8037333333333332V17.90728c0 -4.0420799999999995 -1.6056 -7.918586666666666 -4.463733333333333 -10.776746666666668C48.910133333333334 4.2723733333333325 45.03359999999999 2.6666666666666665 40.99146666666667 2.6666666666666665H10.31896c-0.6765066666666667 0 -1.3252799999999998 0.26874666666666663 -1.8036266666666665 0.7470933333333334 -0.4784 0.4783466666666667 -0.7470933333333334 1.1271466666666665 -0.7470933333333334 1.8036266666666665V58.78266666666667c0 0.6765333333333332 0.26869333333333334 1.3253333333333333 0.7470933333333334 1.8037333333333332 0.4783466666666667 0.4781333333333333 1.12712 0.7469333333333333 1.8036266666666665 0.7469333333333333H53.681333333333335Z" stroke-width="2.6667"></path>
  <path stroke="#191919" stroke-linecap="round" stroke-linejoin="round" d="M43.47786666666667 2.8706133333333335v9.998826666666666c0 0.6765333333333332 0.2688 1.3253066666666666 0.7472 1.80368 0.4784 0.4783466666666667 1.1269333333333331 0.7470933333333334 1.8037333333333332 0.7470933333333334h9.998666666666665" stroke-width="2.6667"></path>
  <path stroke="#191919" stroke-linecap="round" stroke-linejoin="round" d="M23.07408 33.2752v11.4784c0 1.0146666666666666 -0.40312 1.988 -1.1206399999999999 2.7055999999999996 -0.7175466666666666 0.7176 -1.6907466666666666 1.1205333333333334 -2.7054666666666667 1.1205333333333334 -1.0147466666666665 0 -1.98792 -0.40293333333333337 -2.7054666666666667 -1.1205333333333334 -0.7175199999999999 -0.7176 -1.1206399999999999 -1.6909333333333332 -1.1206399999999999 -2.7055999999999996" stroke-width="2.6667"></path>
  <path stroke="#191919" stroke-linecap="round" stroke-linejoin="round" d="M35.82666666666667 37.10133333333333c0 1.0149333333333332 -0.4032 1.988 -1.1205333333333334 2.705333333333333 -0.7176 0.7176 -1.6906666666666665 1.1210666666666667 -2.7055999999999996 1.1210666666666667h-3.8261333333333334v-7.6525333333333325h3.8261333333333334c1.0149333333333332 0 1.988 0.40346666666666664 2.7055999999999996 1.1208 0.7173333333333334 0.7173333333333334 1.1205333333333334 1.6906666666666665 1.1205333333333334 2.705333333333333Z" stroke-width="2.6667"></path>
  <path stroke="#191919" stroke-linecap="round" stroke-linejoin="round" d="M28.1744 48.57973333333334v-7.651999999999999" stroke-width="2.6667"></path>
  <path stroke="#191919" stroke-linecap="round" stroke-linejoin="round" d="M48.580533333333335 38.376799999999996v-1.2754666666666665c0 -1.0146666666666666 -0.4032 -1.988 -1.1205333333333334 -2.705333333333333 -0.7176 -0.7173333333333334 -1.6906666666666665 -1.1208 -2.705333333333333 -1.1208 -1.0149333333333332 0 -1.9882666666666666 0.40346666666666664 -2.7055999999999996 1.1208 -0.7176 0.7173333333333334 -1.1208 1.6906666666666665 -1.1208 2.705333333333333v7.652266666666667c0 1.0146666666666666 0.4032 1.988 1.1208 2.7055999999999996 0.7173333333333334 0.7176 1.6906666666666665 1.1205333333333334 2.7055999999999996 1.1205333333333334 1.0146666666666666 0 1.9877333333333331 -0.40293333333333337 2.705333333333333 -1.1205333333333334 0.7173333333333334 -0.7176 1.1205333333333334 -1.6909333333333332 1.1205333333333334 -2.7055999999999996v-1.2754666666666665h-2.5506666666666664" stroke-width="2.6667"></path>
</svg>
