<svg width="64" height="64" viewBox="0 0 64 64" fill="none" xmlns="http://www.w3.org/2000/svg">
<path d="M57.6672 28.3333H52.1744C51.676 25.8557 50.8541 23.4542 49.7299 21.1907L53.6141 17.3089C54.0725 16.8505 54.3299 16.2289 54.3299 15.5807C54.3299 14.9325 54.0725 14.3109 53.6141 13.8525L50.148 10.396C49.6896 9.93777 49.068 9.68033 48.4197 9.68033C47.7715 9.68033 47.1499 9.93777 46.6915 10.396L42.8048 14.2802C40.5432 13.1556 38.1435 12.3337 35.6672 11.8358V6.33336C35.6672 5.68507 35.4096 5.06331 34.9512 4.60488C34.4928 4.14645 33.8709 3.88889 32.2227 3.88889H29.7781C29.1299 3.88889 28.5083 4.14644 28.0496 4.60486C27.5912 5.06329 27.3339 5.68505 27.3339 6.33335V11.8309C24.8576 12.3296 22.4571 13.1509 20.1936 14.2753L16.3069 10.396C15.8485 9.93773 15.2269 9.68029 14.5787 9.68029C13.9305 9.68029 13.3088 9.93773 12.8504 10.396L9.39155 13.8549C8.93328 14.3133 8.67584 14.935 8.67584 15.5831C8.67584 16.2313 8.93328 16.853 9.39155 17.3114L13.2782 21.1956C12.1547 23.4586 11.3329 25.8591 10.8338 28.3358H5.33384C4.68555 28.3358 4.06379 28.5934 3.60536 29.0518C3.14693 29.5102 2.88941 30.132 2.88941 30.7803V33.2249C2.88941 33.8731 3.14693 34.4947 3.60536 34.9531C4.06379 35.4118 4.68555 35.6691 5.33384 35.6691H10.824C11.3227 38.1454 12.144 40.546 13.2684 42.8095L9.38176 46.6961C8.92349 47.1545 8.66608 47.7761 8.66608 48.4244C8.66608 49.0727 8.92349 49.6943 9.38176 50.1527L12.8504 53.6089C13.3088 54.0673 13.9305 54.3246 14.5787 54.3246C15.2269 54.3246 15.8485 54.0673 16.3069 53.6089L20.1911 49.7222C22.4546 50.8465 24.8561 51.6684 27.3339 52.1668V57.6668C27.3339 58.3151 27.5912 58.9352 28.0496 59.3936C28.5083 59.852 29.1299 60.1096 29.7781 60.1096H32.2227C32.8709 60.1096 33.4928 59.852 33.9512 59.3936C34.4096 58.9352 34.6672 58.3136 34.6672 57.6668V52.1791C37.1432 51.6801 39.5429 50.8582 41.8048 49.7344L45.6939 53.6187C46.1523 54.0771 46.7741 54.3344 47.4224 54.3344C48.0707 54.3344 48.6923 54.0771 49.1507 53.6187L52.6072 50.1622C53.0653 49.7038 53.3229 49.0822 53.3229 48.434C53.3229 47.7857 53.0653 47.1641 52.6072 46.7057L48.7229 42.819C49.8475 40.5553 50.6688 38.1549 51.1675 35.6795H56.6675C57.3157 35.6795 57.9373 35.4219 58.396 34.9635C58.8547 34.5051 59.112 33.8833 59.112 33.2351V30.7908C59.1141 30.4687 59.0523 30.1492 58.9301 29.8511C58.8083 29.5529 58.6283 29.282 58.4011 29.0535C58.1739 28.8252 57.9036 28.6441 57.6063 28.5206C57.3087 28.3971 56.9897 28.3337 56.6675 28.3333ZM32 42.9999C29.0824 42.9999 26.2846 41.841 24.2217 39.7781C22.1594 37.7151 21.0004 34.9173 21.0004 31.9999C21.0004 29.0826 22.1594 26.2847 24.2217 24.2218C26.2846 22.1589 29.0824 21 32 21C34.9173 21 37.7152 22.1589 39.7781 24.2218C41.8411 26.2847 43 29.0826 43 31.9999C43 34.9173 41.8411 37.7151 39.7781 39.7781C37.7152 41.841 34.9173 42.9999 32 42.9999Z" stroke="#E2E8F0" stroke-width="4" stroke-linecap="round" stroke-linejoin="round"/>
</svg>
