<svg xmlns="http://www.w3.org/2000/svg" fill="none" viewBox="0 0 64 64" id="Video-File-Download--Streamline-Ultimate" height="64" width="64">
  <desc>
    Video File Download Streamline Icon: https://streamlinehq.com
  </desc>
  <path fill="#e4f1f5" d="M50.38426666666667 12.869573333333332c0.47866666666666663 0.47821333333333327 0.7472 1.1269066666666667 0.7474666666666666 1.8033599999999999V58.78266666666667c0 0.6762666666666666 -0.2688 1.3253333333333333 -0.7472 1.8034666666666666 -0.4781333333333333 0.4784 -1.1272 0.7472 -1.8034666666666666 0.7472H5.2186933333333325c-0.6765066666666667 0 -1.3252799999999998 -0.2688 -1.8036266666666665 -0.7472 -0.4783733333333333 -0.4781333333333333 -0.7470933333333334 -1.1272 -0.7470933333333334 -1.8034666666666666V5.217386666666666c0 -0.6765066666666667 0.26871999999999996 -1.3252799999999998 0.7470933333333334 -1.8036266666666665C3.893413333333333 2.9354133333333334 4.542186666666666 2.6666666666666665 5.2186933333333325 2.6666666666666665H39.12533333333333c0.6765333333333332 0.00013333333333333334 1.3253333333333333 0.26898666666666665 1.8034666666666666 0.74736l9.455466666666666 9.455546666666667Z" stroke-width="2.6667"></path>
  <path fill="#ffffff" d="m50.38426666666667 12.869573333333332 -9.455466666666666 -9.455546666666667c-0.4781333333333333 -0.4783733333333333 -1.1269333333333331 -0.7472266666666667 -1.8034666666666666 -0.74736H5.2186933333333325c-0.6765066666666667 0 -1.3252799999999998 0.26874666666666663 -1.8036266666666665 0.7470933333333334 -0.4783733333333333 0.4783466666666667 -0.7470933333333334 1.12712 -0.7470933333333334 1.8036266666666665V58.78266666666667c0.00013333333333333334 0.5176 0.15783999999999998 1.0231999999999999 0.45215999999999995 1.4493333333333331 0.29431999999999997 0.42586666666666667 0.7113333333333333 0.7519999999999999 1.1956 0.9354666666666667L51.11386666666667 14.371946666666666c-0.06746666666666666 -0.5684533333333333 -0.3248 -1.0976266666666665 -0.7296 -1.5023733333333331Z" stroke-width="2.6667"></path>
  <path fill="#66e1ff" d="M20.870266666666666 22.342959999999998c-0.29674666666666666 -0.16541333333333333 -0.6315733333333333 -0.25037333333333334 -0.9712799999999999 -0.24647999999999998 -0.33973333333333333 0.003893333333333333 -0.6725333333333332 0.09655999999999999 -0.96536 0.2687733333333333 -0.29288 0.17221333333333333 -0.5356266666666667 0.4179733333333333 -0.7041866666666667 0.7129866666666667 -0.16858666666666666 0.29496 -0.2570933333333333 0.62888 -0.2567733333333333 0.9686133333333333v14.631013333333332c-0.00031999999999999997 0.33973333333333333 0.08818666666666666 0.6736 0.2567733333333333 0.9685333333333334 0.16856 0.2949333333333333 0.4113066666666666 0.5408 0.7041866666666667 0.7130666666666667 0.2928266666666667 0.17226666666666668 0.6256266666666667 0.2648 0.96536 0.2685333333333333 0.33970666666666666 0.004266666666666667 0.6745333333333333 -0.08106666666666666 0.9712799999999999 -0.24639999999999998l12.6796 -7.802666666666667c0.3037333333333333 -0.16906666666666664 0.5570666666666666 -0.4162666666666666 0.7333333333333334 -0.7162666666666666 0.17626666666666668 -0.29946666666666666 0.2693333333333333 -0.6410666666666667 0.2693333333333333 -0.9888 0 -0.348 -0.09306666666666666 -0.6890666666666667 -0.2693333333333333 -0.9890666666666666 -0.17626666666666668 -0.2997333333333333 -0.4296 -0.5469333333333333 -0.7333333333333334 -0.716L20.870266666666666 22.342959999999998Z" stroke-width="2.6667"></path>
  <path stroke="#191919" stroke-linecap="round" stroke-linejoin="round" d="M25.62448 61.33333333333333H5.2186933333333325c-0.6765066666666667 0 -1.3252799999999998 -0.2688 -1.8036266666666665 -0.7472 -0.4783733333333333 -0.4781333333333333 -0.7470933333333334 -1.1272 -0.7470933333333334 -1.8034666666666666V5.217386666666666c0 -0.6765066666666667 0.26871999999999996 -1.3252799999999998 0.7470933333333334 -1.8036266666666665C3.893413333333333 2.9354133333333334 4.542186666666666 2.6666666666666665 5.2186933333333325 2.6666666666666665H39.12533333333333c0.6765333333333332 0.00013333333333333334 1.3253333333333333 0.26898666666666665 1.8034666666666666 0.74736l9.455466666666666 9.455546666666667c0.47866666666666663 0.47821333333333327 0.7472 1.1269066666666667 0.7474666666666666 1.8033599999999999v8.399519999999999" stroke-width="2.6667"></path>
  <path stroke="#191919" stroke-linecap="round" stroke-linejoin="round" d="M33.54986666666667 29.168799999999997 20.870266666666666 22.342959999999998c-0.29674666666666666 -0.16541333333333333 -0.6315733333333333 -0.25037333333333334 -0.9712799999999999 -0.24647999999999998 -0.33973333333333333 0.003893333333333333 -0.6725333333333332 0.09655999999999999 -0.96536 0.2687733333333333 -0.29288 0.17221333333333333 -0.5356266666666667 0.4179733333333333 -0.7041866666666667 0.7129866666666667 -0.16858666666666666 0.29496 -0.2570933333333333 0.62888 -0.2567733333333333 0.9686133333333333v14.631013333333332c-0.00031999999999999997 0.33973333333333333 0.08818666666666666 0.6736 0.2567733333333333 0.9685333333333334 0.16856 0.2949333333333333 0.4113066666666666 0.5408 0.7041866666666667 0.7130666666666667 0.2928266666666667 0.17226666666666668 0.6256266666666667 0.2648 0.96536 0.2685333333333333 0.33970666666666666 0.004266666666666667 0.6745333333333333 -0.08106666666666666 0.9712799999999999 -0.24639999999999998l5.547839999999999 -3.4128" stroke-width="2.6667"></path>
  <path fill="#78eb7b" d="M46.02826666666667 61.33333333333333c3.026933333333333 0 5.9858666666666664 -0.8976 8.502666666666666 -2.5791999999999997 2.5168 -1.6818666666666666 4.4784 -4.0717333333333325 5.636799999999999 -6.868533333333333 1.1583999999999999 -2.796533333333333 1.4613333333333334 -5.8736 0.8709333333333333 -8.842133333333333 -0.5906666666666667 -2.9688 -2.048 -5.695733333333333 -4.188533333333333 -7.836266666666667 -2.140533333333333 -2.140533333333333 -4.867466666666666 -3.5978666666666665 -7.836266666666667 -4.188533333333333 -2.9685333333333332 -0.5904 -6.0456 -0.28746666666666665 -8.8424 0.8709333333333333 -2.796533333333333 1.1583999999999999 -5.1864 3.1199999999999997 -6.868266666666667 5.636799999999999 -1.6816 2.5168 -2.5791999999999997 5.4757333333333325 -2.5791999999999997 8.502666666666666 0 4.058933333333333 1.6122666666666667 7.951466666666666 4.482666666666667 10.821599999999998C38.0768 59.72106666666666 41.96933333333333 61.33333333333333 46.02826666666667 61.33333333333333Z" stroke-width="2.6667"></path>
  <path fill="#c9f7ca" d="M46.02933333333333 30.724800000000002c-3.1154666666666664 -0.0034666666666666665 -6.157333333333334 0.9450666666666666 -8.718666666666666 2.7181333333333333 -2.5616 1.7733333333333334 -4.520266666666666 4.286933333333333 -5.613866666666667 7.203733333333333 -1.0933333333333333 2.917066666666667 -1.2698666666666667 6.0986666666666665 -0.5053333333333333 9.118933333333333 0.7642666666666666 3.02 2.433333333333333 5.734399999999999 4.782933333333333 7.779999999999999l21.57413333333333 -21.57413333333333c-1.4330666666666665 -1.6477333333333333 -3.2026666666666666 -2.9688 -5.189866666666666 -3.873866666666667 -1.9874666666666665 -0.9050666666666666 -4.1456 -1.3733333333333333 -6.329333333333333 -1.3728Z" stroke-width="2.6667"></path>
  <path stroke="#191919" stroke-linecap="round" stroke-linejoin="round" d="M46.02826666666667 61.33333333333333c3.026933333333333 0 5.9858666666666664 -0.8976 8.502666666666666 -2.5791999999999997 2.5168 -1.6818666666666666 4.4784 -4.0717333333333325 5.636799999999999 -6.868533333333333 1.1583999999999999 -2.796533333333333 1.4613333333333334 -5.8736 0.8709333333333333 -8.842133333333333 -0.5906666666666667 -2.9688 -2.048 -5.695733333333333 -4.188533333333333 -7.836266666666667 -2.140533333333333 -2.140533333333333 -4.867466666666666 -3.5978666666666665 -7.836266666666667 -4.188533333333333 -2.9685333333333332 -0.5904 -6.0456 -0.28746666666666665 -8.8424 0.8709333333333333 -2.796533333333333 1.1583999999999999 -5.1864 3.1199999999999997 -6.868266666666667 5.636799999999999 -1.6816 2.5168 -2.5791999999999997 5.4757333333333325 -2.5791999999999997 8.502666666666666 0 4.058933333333333 1.6122666666666667 7.951466666666666 4.482666666666667 10.821599999999998C38.0768 59.72106666666666 41.96933333333333 61.33333333333333 46.02826666666667 61.33333333333333Z" stroke-width="2.6667"></path>
  <path stroke="#191919" stroke-linecap="round" stroke-linejoin="round" d="M46.02853333333333 38.376799999999996v15.304533333333334" stroke-width="2.6667"></path>
  <path stroke="#191919" stroke-linecap="round" stroke-linejoin="round" d="m46.02826666666667 53.681066666666666 -5.7392 -5.738933333333333" stroke-width="2.6667"></path>
  <path stroke="#191919" stroke-linecap="round" stroke-linejoin="round" d="m46.02853333333333 53.681066666666666 5.7392 -5.738933333333333" stroke-width="2.6667"></path>
</svg>
