<svg xmlns="http://www.w3.org/2000/svg" fill="none" viewBox="0 0 64 64" id="Music-Note-1--Streamline-Ultimate" height="64" width="64">
  <desc>
    Music Note 1 Streamline Icon: https://streamlinehq.com
  </desc>
  <path fill="#d480ff" d="M34.11573333333333 52.53306666666666c-0.07333333333333333 2.3106666666666666 -1.024 4.506666666666666 -2.6586666666666665 6.141333333333333 -1.6349333333333331 1.6346666666666665 -3.8306666666666667 2.5853333333333333 -6.1413866666666665 2.658933333333333 -2.33392 0 -4.57224 -0.9272 -6.2225866666666665 -2.5776 -1.65032 -1.6503999999999999 -2.5774666666666666 -3.8888 -2.5774666666666666 -6.222666666666666s0.9271466666666666 -4.572266666666666 2.5774666666666666 -6.2224c1.6503466666666666 -1.6503999999999999 3.8886666666666665 -2.5776 6.2225866666666665 -2.5776h8.800053333333333v8.799999999999999Z" stroke-width="2.6667"></path>
  <path fill="#eabfff" d="M25.31568 43.73306666666666c-2.33392 0 -4.57224 0.9272 -6.2225866666666665 2.5776 -1.65032 1.6501333333333332 -2.5774666666666666 3.888533333333333 -2.5774666666666666 6.2224 0 1.2671999999999999 0.28159999999999996 2.519733333333333 0.8184 3.6666666666666665 0.70056 -1.5282666666666667 1.8243466666666666 -2.8242666666666665 3.2383466666666667 -3.7338666666666662 1.414 -0.9098666666666666 3.059013333333333 -1.3954666666666666 4.740373333333333 -1.3994666666666666h8.800053333333333v-7.333333333333333H25.31568Z" stroke-width="2.6667"></path>
  <path stroke="#191919" stroke-linecap="round" stroke-linejoin="round" d="M34.11573333333333 52.53306666666666c-0.07333333333333333 2.3106666666666666 -1.024 4.506666666666666 -2.6586666666666665 6.141333333333333 -1.6349333333333331 1.6346666666666665 -3.8306666666666667 2.5853333333333333 -6.1413866666666665 2.658933333333333 -2.33392 0 -4.57224 -0.9272 -6.2225866666666665 -2.5776 -1.65032 -1.6503999999999999 -2.5774666666666666 -3.8888 -2.5774666666666666 -6.222666666666666s0.9271466666666666 -4.572266666666666 2.5774666666666666 -6.2224c1.6503466666666666 -1.6503999999999999 3.8886666666666665 -2.5776 6.2225866666666665 -2.5776h8.800053333333333v8.799999999999999Z" stroke-width="2.6667"></path>
  <path stroke="#191919" stroke-linecap="round" stroke-linejoin="round" d="M34.114399999999996 43.733599999999996V2.6666666666666665c-0.13999999999999999 1.7287733333333333 0.19599999999999998 3.4628533333333333 0.9717333333333333 5.0141599999999995 0.7757333333333333 1.5513066666666666 1.9613333333333334 2.8606133333333332 3.4282666666666666 3.785893333333333 14.08 9.386746666666667 8.236799999999999 21.64234666666667 4.731466666666666 30.800213333333332" stroke-width="2.6667"></path>
</svg>
