<svg xmlns="http://www.w3.org/2000/svg" fill="none" viewBox="0 0 64 64" id="Video-Edit-Magic-Wand--Streamline-Ultimate" height="64" width="64">
  <desc>
    Video Edit Magic Wand Streamline Icon: https://streamlinehq.com
  </desc>
  <path fill="#e3e3e3" d="M39.01466666666666 2.6666666666666665H5.855413333333333c-1.40872 0 -2.55072 1.142 -2.55072 2.55072V51.130399999999995c0 1.4087999999999998 1.142 2.5506666666666664 2.55072 2.5506666666666664H39.01466666666666c1.4087999999999998 0 2.550933333333333 -1.1418666666666666 2.550933333333333 -2.5506666666666664V5.217386666666666c0 -1.40872 -1.1421333333333332 -2.55072 -2.550933333333333 -2.55072Z" stroke-width="2.6667"></path>
  <path fill="#66e1ff" d="M33.913599999999995 2.6666666666666665H10.95704v51.0144h22.95656V2.6666666666666665Z" stroke-width="2.6667"></path>
  <path fill="#c2f3ff" d="M30.513333333333335 2.6666666666666665H10.95704v19.556399999999996L30.513333333333335 2.6666666666666665Z" stroke-width="2.6667"></path>
  <path fill="#c2f3ff" d="M30.513333333333335 33.27546666666667H10.95704v19.556266666666666l19.556293333333333 -19.556266666666666Z" stroke-width="2.6667"></path>
  <path fill="#e3e3e3" d="M41.565599999999996 23.072586666666666H3.3046933333333333v10.20288H41.565599999999996V23.072586666666666Z" stroke-width="2.6667"></path>
  <path stroke="#191919" stroke-linecap="round" stroke-linejoin="round" d="M41.565599999999996 33.2752V5.217386666666666c0 -0.6765066666666667 -0.2688 -1.3252799999999998 -0.7472 -1.8036266666666665C40.340266666666665 2.9354133333333334 39.691199999999995 2.6666666666666665 39.01466666666666 2.6666666666666665H5.855413333333333c-0.6765066666666667 0 -1.3252799999999998 0.26874666666666663 -1.8036533333333333 0.7470933333333334 -0.4783466666666667 0.4783466666666667 -0.7470666666666667 1.12712 -0.7470666666666667 1.8036266666666665V51.130399999999995c0 0.6765333333333332 0.26871999999999996 1.3253333333333333 0.7470666666666667 1.8037333333333332 0.4783733333333333 0.4781333333333333 1.1271466666666665 0.7469333333333333 1.8036533333333333 0.7469333333333333h24.231786666666665" stroke-width="2.6667"></path>
  <path stroke="#191919" stroke-linecap="round" stroke-linejoin="round" d="M33.913599999999995 2.6666666666666665v20.405786666666664H10.95704V2.6666666666666665" stroke-width="2.6667"></path>
  <path stroke="#191919" stroke-linecap="round" stroke-linejoin="round" d="M10.956853333333331 12.869626666666665H3.3046933333333333" stroke-width="2.6667"></path>
  <path stroke="#191919" stroke-linecap="round" stroke-linejoin="round" d="M10.956853333333331 23.072586666666666H3.3046933333333333" stroke-width="2.6667"></path>
  <path stroke="#191919" stroke-linecap="round" stroke-linejoin="round" d="M41.5648 12.869626666666665h-7.651999999999999" stroke-width="2.6667"></path>
  <path stroke="#191919" stroke-linecap="round" stroke-linejoin="round" d="M41.5648 23.072586666666666h-7.651999999999999" stroke-width="2.6667"></path>
  <path stroke="#191919" stroke-linecap="round" stroke-linejoin="round" d="M10.95704 53.681066666666666v-20.4056h22.95656v11.478133333333332" stroke-width="2.6667"></path>
  <path stroke="#191919" stroke-linecap="round" stroke-linejoin="round" d="M10.956853333333331 33.27546666666667H3.3046933333333333" stroke-width="2.6667"></path>
  <path stroke="#191919" stroke-linecap="round" stroke-linejoin="round" d="M10.956853333333331 43.4784H3.3046933333333333" stroke-width="2.6667"></path>
  <path stroke="#191919" stroke-linecap="round" stroke-linejoin="round" d="M41.5648 33.27546666666667h-7.651999999999999" stroke-width="2.6667"></path>
  <path fill="#ffef5e" d="m59.114399999999996 34.32106666666667 -4.7951999999999995 9.004 -9.004 -4.7951999999999995 4.7951999999999995 -9.004c0.15786666666666666 -0.2976 0.3736 -0.5608 0.6335999999999999 -0.7746666666666666 0.2605333333333333 -0.21386666666666665 0.5605333333333333 -0.3741333333333333 0.8832 -0.47119999999999995 0.32239999999999996 -0.09733333333333333 0.6607999999999999 -0.1296 0.996 -0.09546666666666666 0.3352 0.0344 0.6599999999999999 0.13466666666666666 0.9562666666666666 0.29546666666666666l4.489333333333333 2.3975999999999997c0.2957333333333333 0.15626666666666666 0.5578666666666666 0.3696 0.7706666666666666 0.6277333333333333 0.21306666666666665 0.2581333333333333 0.3728 0.5557333333333333 0.47013333333333335 0.876 0.09733333333333333 0.32026666666666664 0.12986666666666666 0.6565333333333333 0.09653333333333333 0.9893333333333333 -0.0336 0.3330666666666666 -0.13279999999999997 0.6559999999999999 -0.2917333333333333 0.9503999999999999Z" stroke-width="2.6667"></path>
  <path fill="#c77f67" d="m44.727466666666665 61.33333333333333 9.590666666666666 -18.008 -9.004 -4.795466666666666L33.1472 61.33333333333333" stroke-width="2.6667"></path>
  <path stroke="#191919" stroke-linecap="round" stroke-linejoin="round" d="M51.76826666666666 17.97104v5.10144" stroke-width="2.6667"></path>
  <path stroke="#191919" stroke-linecap="round" stroke-linejoin="round" d="M54.31893333333333 20.521813333333334h-5.1015999999999995" stroke-width="2.6667"></path>
  <path stroke="#191919" stroke-linecap="round" stroke-linejoin="round" d="M56.86986666666667 3.942213333333333v7.652159999999999" stroke-width="2.6667"></path>
  <path stroke="#191919" stroke-linecap="round" stroke-linejoin="round" d="M60.69653333333333 7.76824h-7.652266666666667" stroke-width="2.6667"></path>
  <path stroke="#191919" stroke-linecap="round" stroke-linejoin="round" d="m59.114399999999996 34.32106666666667 -4.7951999999999995 9.004 -9.004 -4.7951999999999995 4.7951999999999995 -9.004c0.15786666666666666 -0.2976 0.3736 -0.5608 0.6335999999999999 -0.7746666666666666 0.2605333333333333 -0.21386666666666665 0.5605333333333333 -0.3741333333333333 0.8832 -0.47119999999999995 0.32239999999999996 -0.09733333333333333 0.6607999999999999 -0.1296 0.996 -0.09546666666666666 0.3352 0.0344 0.6599999999999999 0.13466666666666666 0.9562666666666666 0.29546666666666666l4.489333333333333 2.3975999999999997c0.2957333333333333 0.15626666666666666 0.5578666666666666 0.3696 0.7706666666666666 0.6277333333333333 0.21306666666666665 0.2581333333333333 0.3728 0.5557333333333333 0.47013333333333335 0.876 0.09733333333333333 0.32026666666666664 0.12986666666666666 0.6565333333333333 0.09653333333333333 0.9893333333333333 -0.0336 0.3330666666666666 -0.13279999999999997 0.6559999999999999 -0.2917333333333333 0.9503999999999999Z" stroke-width="2.6667"></path>
  <path stroke="#191919" stroke-linecap="round" stroke-linejoin="round" d="m44.727466666666665 61.33333333333333 9.590666666666666 -18.008 -9.004 -4.795466666666666L33.1472 61.33333333333333" stroke-width="2.6667"></path>
</svg>
