<svg xmlns="http://www.w3.org/2000/svg" fill="none" viewBox="0 0 64 64" id="Vinyl-Record--Streamline-Ultimate" height="64" width="64">
  <desc>
    Vinyl Record Streamline Icon: https://streamlinehq.com
  </desc>
  <g clip-path="url(#a)">
    <path fill="#808080" d="M32 61.33333333333333c16.200533333333333 0 29.333333333333332 -13.1328 29.333333333333332 -29.333333333333332 0 -16.200346666666665 -13.1328 -29.333333333333332 -29.333333333333332 -29.333333333333332C15.799653333333334 2.6666666666666665 2.6666666666666665 15.799653333333334 2.6666666666666665 32c0 16.200533333333333 13.132986666666667 29.333333333333332 29.333333333333332 29.333333333333332Z" stroke-width="2.6667"></path>
    <path fill="#b2b2b2" d="m32.00266666666666 31.99973333333333 6.8562666666666665 28.49413333333333c5.130933333333333 -1.2391999999999999 9.832533333333332 -3.839733333333333 13.608799999999999 -7.527733333333334 3.776533333333333 -3.687733333333333 6.487733333333333 -8.3264 7.848 -13.426400000000001L32.00266666666666 31.99973333333333Z" stroke-width="2.6667"></path>
    <path fill="#b2b2b2" d="M32.00053333333333 32 25.144186666666663 3.5058666666666665c-5.130906666666666 1.2390666666666665 -9.8324 3.83968 -13.608773333333334 7.5276 -3.776346666666667 3.6878933333333332 -6.4876266666666655 8.32648 -7.847919999999999 13.426586666666667L32.00053333333333 32Z" stroke-width="2.6667"></path>
    <path fill="#ffef5e" d="M31.999200000000002 38.376799999999996c3.5218666666666665 0 6.3768 -2.8552 6.3768 -6.377066666666666 0 -3.5216 -2.8549333333333333 -6.376693333333333 -6.3768 -6.376693333333333 -3.5218666666666665 0 -6.3768 2.855093333333333 -6.3768 6.376693333333333 0 3.5218666666666665 2.8549333333333333 6.377066666666666 6.3768 6.377066666666666Z" stroke-width="2.6667"></path>
    <path stroke="#191919" stroke-linecap="round" stroke-linejoin="round" d="M54.64426666666666 28.3776c-0.7450666666666665 -4.655866666666666 -2.9058666666666664 -8.969466666666666 -6.188266666666667 -12.354319999999998 -3.2829333333333333 -3.3849066666666663 -7.528266666666667 -5.676826666666667 -12.1592 -6.564293333333333" stroke-width="2.6667"></path>
    <path stroke="#191919" stroke-linecap="round" stroke-linejoin="round" d="M49.602399999999996 29.193866666666665c-0.5768 -3.621786666666667 -2.2546666666666666 -6.978026666666667 -4.805866666666667 -9.612613333333332 -2.550933333333333 -2.6345866666666664 -5.851733333333333 -4.41976 -9.4528 -5.112826666666667" stroke-width="2.6667"></path>
    <path stroke="#191919" stroke-linecap="round" stroke-linejoin="round" d="M44.58319999999999 29.9872c-0.41493333333333327 -2.5877333333333334 -1.6170666666666667 -4.9848799999999995 -3.4426666666666663 -6.8652533333333325 -1.8253333333333333 -1.8803466666666666 -4.185866666666667 -3.15264 -6.760266666666666 -3.6437599999999994" stroke-width="2.6667"></path>
    <path stroke="#191919" stroke-linecap="round" stroke-linejoin="round" d="M9.356773333333333 35.62186666666666c0.7450933333333333 4.655733333333333 2.905813333333333 8.9696 6.1884266666666665 12.3544 3.2826666666666666 3.3848000000000003 7.528 5.6768 12.1588 6.564266666666666" stroke-width="2.6667"></path>
    <path stroke="#191919" stroke-linecap="round" stroke-linejoin="round" d="M14.403653333333333 34.8056c0.57928 3.6213333333333333 2.2596 6.976266666666666 4.812506666666666 9.609066666666667 2.5529066666666664 2.6327999999999996 5.85456 4.415733333333333 9.456106666666667 5.106133333333333" stroke-width="2.6667"></path>
    <path stroke="#191919" stroke-linecap="round" stroke-linejoin="round" d="M19.41928 34.01226666666666c0.41434666666666664 2.5882666666666667 1.6161066666666666 4.986133333333333 3.4417333333333335 6.866933333333333s4.186453333333333 3.1533333333333333 6.761119999999999 3.6448" stroke-width="2.6667"></path>
    <path stroke="#191919" stroke-linecap="round" stroke-linejoin="round" d="M32 61.33333333333333c16.200533333333333 0 29.333333333333332 -13.1328 29.333333333333332 -29.333333333333332 0 -16.200346666666665 -13.1328 -29.333333333333332 -29.333333333333332 -29.333333333333332C15.799653333333334 2.6666666666666665 2.6666666666666665 15.799653333333334 2.6666666666666665 32c0 16.200533333333333 13.132986666666667 29.333333333333332 29.333333333333332 29.333333333333332Z" stroke-width="2.6667"></path>
    <path stroke="#191919" stroke-linecap="round" stroke-linejoin="round" d="M31.999200000000002 38.376799999999996c3.5218666666666665 0 6.3768 -2.8552 6.3768 -6.377066666666666 0 -3.5216 -2.8549333333333333 -6.376693333333333 -6.3768 -6.376693333333333 -3.5218666666666665 0 -6.3768 2.855093333333333 -6.3768 6.376693333333333 0 3.5218666666666665 2.8549333333333333 6.377066666666666 6.3768 6.377066666666666Z" stroke-width="2.6667"></path>
    <path stroke="#191919" d="M31.99973333333333 32.6376c-0.3522666666666666 0 -0.6378666666666666 -0.2853333333333333 -0.6378666666666666 -0.6376s0.28559999999999997 -0.6376 0.6378666666666666 -0.6376" stroke-width="2.6667"></path>
    <path stroke="#191919" d="M32.00266666666666 32.6376c0.3522666666666666 0 0.6376 -0.2853333333333333 0.6376 -0.6376s-0.2853333333333333 -0.6376 -0.6376 -0.6376" stroke-width="2.6667"></path>
  </g>
  <defs>
    <clipPath id="a">
      <path fill="#ffffff" d="M0 0h64v64H0z" stroke-width="2.6667"></path>
    </clipPath>
  </defs>
</svg>
