<svg xmlns="http://www.w3.org/2000/svg" fill="none" viewBox="0 0 64 64" id="Video-Player--Streamline-Ultimate" height="64" width="64">
  <desc>
    Video Player Streamline Icon: https://streamlinehq.com
  </desc>
  <path fill="#66e1ff" d="M51.130399999999995 7.768053333333333H12.869573333333332c-2.705973333333333 0 -5.301119999999999 1.07496 -7.21456 2.9883733333333335C3.7416 12.66984 2.6666666666666665 15.264986666666667 2.6666666666666665 17.970959999999998V46.0288c0 2.706133333333333 1.0749333333333333 5.301333333333333 2.9883466666666667 7.214666666666666 1.9134399999999998 1.9133333333333333 4.508586666666666 2.9882666666666666 7.21456 2.9882666666666666H51.130399999999995c2.706133333333333 0 5.301066666666666 -1.0749333333333333 7.214666666666666 -2.9882666666666666C60.2584 51.33013333333333 61.33333333333333 48.73493333333333 61.33333333333333 46.0288V17.970959999999998c0 -2.705973333333333 -1.0749333333333333 -5.301119999999999 -2.9882666666666666 -7.214533333333333 -1.9136 -1.9134133333333332 -4.508533333333333 -2.9883733333333335 -7.214666666666666 -2.9883733333333335Z" stroke-width="2.6667"></path>
  <path fill="#c2f3ff" d="M51.130399999999995 7.768079999999999H12.869573333333332c-2.7034933333333333 0.00808 -5.293973333333333 1.0856 -7.2056266666666655 2.99728C3.7522666666666664 12.677013333333331 2.6747466666666666 15.267466666666666 2.6666666666666665 17.970959999999998V46.029066666666665c0.005306666666666666 1.9597333333333333 0.5729066666666667 3.876533333333333 1.63544 5.523466666666666 1.0625333333333333 1.6466666666666667 2.575333333333333 2.9538666666666664 4.358773333333334 3.7661333333333333L55.30853333333333 8.668479999999999c-1.3122666666666665 -0.5952533333333333 -2.7370666666666663 -0.9022666666666666 -4.178133333333333 -0.9004Z" stroke-width="2.6667"></path>
  <path stroke="#191919" stroke-linecap="round" stroke-linejoin="round" d="M51.130399999999995 7.768053333333333H12.869573333333332c-2.705973333333333 0 -5.301119999999999 1.07496 -7.21456 2.9883733333333335C3.7416 12.66984 2.6666666666666665 15.264986666666667 2.6666666666666665 17.970959999999998V46.0288c0 2.706133333333333 1.0749333333333333 5.301333333333333 2.9883466666666667 7.214666666666666 1.9134399999999998 1.9133333333333333 4.508586666666666 2.9882666666666666 7.21456 2.9882666666666666H51.130399999999995c2.706133333333333 0 5.301066666666666 -1.0749333333333333 7.214666666666666 -2.9882666666666666C60.2584 51.33013333333333 61.33333333333333 48.73493333333333 61.33333333333333 46.0288V17.970959999999998c0 -2.705973333333333 -1.0749333333333333 -5.301119999999999 -2.9882666666666666 -7.214533333333333 -1.9136 -1.9134133333333332 -4.508533333333333 -2.9883733333333335 -7.214666666666666 -2.9883733333333335Z" stroke-width="2.6667"></path>
  <path fill="#ffffff" d="M26.761333333333333 41.63146666666667c-0.3889066666666666 0.19413333333333332 -0.8208799999999999 0.28586666666666666 -1.2550666666666666 0.26639999999999997 -0.4341866666666666 -0.019733333333333332 -0.85616 -0.14986666666666665 -1.2258933333333333 -0.3781333333333333 -0.36976 -0.2285333333333333 -0.6749866666666666 -0.5477333333333333 -0.8867733333333333 -0.9272 -0.21175999999999998 -0.3794666666666667 -0.3230666666666666 -0.8069333333333333 -0.32328 -1.2416V24.64864c0.00021333333333333333 -0.43461333333333335 0.11152000000000001 -0.8619733333333334 0.32328 -1.2414933333333331 0.21178666666666668 -0.3795466666666667 0.5170133333333333 -0.6986666666666667 0.8867733333333333 -0.9271199999999999 0.3697333333333333 -0.22842666666666667 0.7917066666666666 -0.3586133333333333 1.2258933333333333 -0.37815999999999994 0.4341866666666666 -0.019546666666666664 0.8661599999999999 0.07216 1.2550666666666666 0.26642666666666664l14.702133333333332 7.351173333333333c0.424 0.21146666666666664 0.7805333333333333 0.5367999999999999 1.0298666666666665 0.9394666666666667 0.24933333333333332 0.40293333333333337 0.3813333333333333 0.8672 0.3813333333333333 1.3408 0 0.47386666666666666 -0.132 0.9381333333333333 -0.3813333333333333 1.3408 -0.24933333333333332 0.40293333333333337 -0.6058666666666667 0.7282666666666666 -1.0298666666666665 0.9397333333333333l-14.702133333333332 7.3511999999999995Z" stroke-width="2.6667"></path>
  <path stroke="#191919" stroke-linecap="round" stroke-linejoin="round" d="M26.761333333333333 41.63146666666667c-0.3889066666666666 0.19413333333333332 -0.8208799999999999 0.28586666666666666 -1.2550666666666666 0.26639999999999997 -0.4341866666666666 -0.019733333333333332 -0.85616 -0.14986666666666665 -1.2258933333333333 -0.3781333333333333 -0.36976 -0.2285333333333333 -0.6749866666666666 -0.5477333333333333 -0.8867733333333333 -0.9272 -0.21175999999999998 -0.3794666666666667 -0.3230666666666666 -0.8069333333333333 -0.32328 -1.2416V24.64864c0.00021333333333333333 -0.43461333333333335 0.11152000000000001 -0.8619733333333334 0.32328 -1.2414933333333331 0.21178666666666668 -0.3795466666666667 0.5170133333333333 -0.6986666666666667 0.8867733333333333 -0.9271199999999999 0.3697333333333333 -0.22842666666666667 0.7917066666666666 -0.3586133333333333 1.2258933333333333 -0.37815999999999994 0.4341866666666666 -0.019546666666666664 0.8661599999999999 0.07216 1.2550666666666666 0.26642666666666664l14.702133333333332 7.351173333333333c0.424 0.21146666666666664 0.7805333333333333 0.5367999999999999 1.0298666666666665 0.9394666666666667 0.24933333333333332 0.40293333333333337 0.3813333333333333 0.8672 0.3813333333333333 1.3408 0 0.47386666666666666 -0.132 0.9381333333333333 -0.3813333333333333 1.3408 -0.24933333333333332 0.40293333333333337 -0.6058666666666667 0.7282666666666666 -1.0298666666666665 0.9397333333333333l-14.702133333333332 7.3511999999999995Z" stroke-width="2.6667"></path>
</svg>
