<svg xmlns="http://www.w3.org/2000/svg" fill="none" viewBox="0 0 64 64" id="Button-Stop--Streamline-Ultimate" height="64" width="64">
  <desc>
    Button Stop Streamline Icon: https://streamlinehq.com
  </desc>
  <path fill="#ffffff" d="M32.00053333333333 60.11093333333333c15.525333333333332 0 28.110933333333335 -12.5856 28.110933333333335 -28.110933333333335 0 -15.525386666666666 -12.5856 -28.11117333333333 -28.110933333333335 -28.11117333333333C16.475119999999997 3.8888266666666667 3.889333333333333 16.47461333333333 3.889333333333333 32c0 15.525333333333332 12.585786666666666 28.110933333333335 28.1112 28.110933333333335Z" stroke-width="2.6667"></path>
  <path fill="#e4f1f5" d="M32.00053333333333 52.77786666666666c-6.819813333333333 -0.0010666666666666667 -13.406586666666666 -2.481333333333333 -18.53336 -6.978399999999999 -5.1267733333333325 -4.497066666666666 -8.443893333333332 -10.7048 -9.333413333333333 -17.46613333333333 -0.5064799999999999 3.8154666666666666 -0.2239733333333333 7.6946666666666665 0.8300266666666666 11.396533333333332 1.0539999999999998 3.7021333333333333 2.857013333333333 7.148266666666666 5.297333333333333 10.1248 2.440293333333333 2.9765333333333333 5.465920000000001 5.420266666666667 8.889333333333333 7.18 3.423413333333333 1.7594666666666667 7.171706666666666 2.7970666666666664 11.012479999999998 3.0485333333333333 3.8410666666666664 0.2514666666666666 7.692799999999999 -0.28826666666666667 11.316266666666666 -1.5861333333333332 3.623733333333333 -1.2978666666666667 6.9424 -3.3258666666666667 9.749866666666666 -5.9589333333333325 2.807733333333333 -2.6327999999999996 5.045066666666666 -5.8144 6.573066666666667 -9.347199999999999 1.5277333333333332 -3.5328 2.3138666666666667 -7.341866666666666 2.309333333333333 -11.190933333333334 -0.0021333333333333334 -1.2261333333333333 -0.08373333333333333 -2.4509333333333334 -0.24426666666666666 -3.6666666666666665 -0.8896 6.761333333333333 -4.206666666666666 12.969066666666667 -9.3336 17.46613333333333 -5.126666666666667 4.497066666666666 -11.713333333333333 6.977333333333332 -18.533066666666667 6.978399999999999Z" stroke-width="2.6667"></path>
  <path stroke="#191919" stroke-linecap="round" stroke-linejoin="round" d="M32.00053333333333 60.108533333333334c15.525333333333332 0 28.110933333333335 -12.5856 28.110933333333335 -28.110933333333335 0 -15.52544 -12.5856 -28.1112 -28.110933333333335 -28.1112 -15.525413333333333 0 -28.1112 12.58576 -28.1112 28.1112 0 15.525333333333332 12.585786666666666 28.110933333333335 28.1112 28.110933333333335Z" stroke-width="2.6667"></path>
  <path fill="#66e1ff" stroke="#191919" stroke-linecap="round" stroke-linejoin="round" d="M40.55546666666666 20.997546666666665H23.444453333333332c-1.3500266666666667 0 -2.444453333333333 1.0944266666666667 -2.444453333333333 2.444453333333333v17.111066666666666c0 1.3501333333333332 1.0944266666666667 2.4445333333333332 2.444453333333333 2.4445333333333332h17.111013333333332c1.3501333333333332 0 2.4445333333333332 -1.0943999999999998 2.4445333333333332 -2.4445333333333332V23.441999999999997c0 -1.3500266666666667 -1.0943999999999998 -2.444453333333333 -2.4445333333333332 -2.444453333333333Z" stroke-width="2.6667"></path>
</svg>
